<?xml version="1.0" standalone="no"?><svg xmlns="http://www.w3.org/2000/svg" viewBox="0 0 1440 320"><path fill="#6238C8" fill-opacity="1" d="M0,192L34.3,170.7C68.6,149,137,107,206,106.7C274.3,107,343,149,411,192C480,235,549,277,617,282.7C685.7,288,754,256,823,224C891.4,192,960,160,1029,165.3C1097.1,171,1166,213,1234,234.7C1302.9,256,1371,256,1406,256L1440,256L1440,0L1405.7,0C1371.4,0,1303,0,1234,0C1165.7,0,1097,0,1029,0C960,0,891,0,823,0C754.3,0,686,0,617,0C548.6,0,480,0,411,0C342.9,0,274,0,206,0C137.1,0,69,0,34,0L0,0Z"></path></svg>